<?xml version="1.0" encoding="utf-8"?>
<!-- Generator: Adobe Illustrator 16.0.0, SVG Export Plug-In . SVG Version: 6.00 Build 0)  -->
<!DOCTYPE svg PUBLIC "-//W3C//DTD SVG 1.1//EN" "http://www.w3.org/Graphics/SVG/1.1/DTD/svg11.dtd">
<svg version="1.1" id="Layer_1" xmlns="http://www.w3.org/2000/svg" xmlns:xlink="http://www.w3.org/1999/xlink" x="0px" y="0px"
	 width="12px" height="12.009px" viewBox="0 0 12 12.009" enable-background="new 0 0 12 12.009" xml:space="preserve">
<path id="path7602_2_" d="M9.529,0.01c-1.365,0-2.469,1.105-2.469,2.471c0,0.311,0.07,0.609,0.174,0.883L1.412,9.187
	c0-0.706,0-2.119,0-2.823c0-1.059,0.705-1.412,0.705-1.412l0.707,0.705c0,0,0-1.881,0-2.822c0-0.707-0.354-0.354-0.707,0
	C0,4.951,0,4.931,0,6.363v2.821v2.119c0,0.352,0.354,0.705,0.705,0.705h2.119h2.824c1.43,0,2.586-1.176,3.527-2.117
	c0.354-0.354,0.707-0.696,0-0.707H6.354l0.707,0.707c0,0-0.355,0.706-1.412,0.706c-0.707,0-2.119,0-2.824,0l5.822-5.822
	C8.92,4.879,9.219,4.951,9.529,4.951C10.895,4.951,12,3.846,12,2.48S10.895,0.01,9.529,0.01L9.529,0.01z M9.529,1.422
	c0.584,0,1.059,0.475,1.059,1.059s-0.475,1.059-1.059,1.059S8.471,3.064,8.471,2.48S8.945,1.422,9.529,1.422z"/>
</svg>
