<?xml version="1.0" encoding="utf-8"?>
<!-- Generator: Adobe Illustrator 15.0.0, SVG Export Plug-In . SVG Version: 6.00 Build 0)  -->
<!DOCTYPE svg PUBLIC "-//W3C//DTD SVG 1.1//EN" "http://www.w3.org/Graphics/SVG/1.1/DTD/svg11.dtd">
<svg version="1.1" id="Layer_1" xmlns="http://www.w3.org/2000/svg" xmlns:xlink="http://www.w3.org/1999/xlink" x="0px" y="0px"
	 width="83.404px" height="83.404px" viewBox="8.394 8.798 83.404 83.404" enable-background="new 8.394 8.798 83.404 83.404"
	 xml:space="preserve">
<path d="M84.648,15.947v51.234h-40.51h-3.826l-2.123,3.184l-5.967,8.949l-5.966-8.949l-2.123-3.184h-3.826h-4.766V15.947H84.648
	 M91.798,8.798H8.394V74.33h11.915l11.915,17.872L44.138,74.33h47.66V8.798L91.798,8.798z"/>
<path d="M45.604,29.63c-2.888,0.544-4.92,2.639-6.093,6.283c-0.586,1.801-0.879,3.579-0.879,5.338c0,0.209,0.009,0.389,0.03,0.535
	c0.021,0.145,0.053,0.47,0.095,0.973h6.847v13.697H32.223V43.828c0-6.197,1.236-10.973,3.708-14.323
	c2.471-3.351,5.694-5.278,9.674-5.781L45.604,29.63L45.604,29.63z"/>
<path d="M66.781,29.63c-2.309,0.377-4.055,1.675-5.25,3.896c-1.191,2.218-1.793,4.775-1.793,7.663c0,0.254,0.015,0.505,0.033,0.756
	c0.022,0.249,0.074,0.521,0.158,0.814h6.852v13.697H53.335V43.828c0-4.982,1.047-9.434,3.138-13.351
	c2.1-3.915,5.528-6.167,10.31-6.753L66.781,29.63L66.781,29.63z"/>
</svg>
