<?xml version="1.0" encoding="utf-8"?>
<!-- Generator: Adobe Illustrator 16.0.0, SVG Export Plug-In . SVG Version: 6.00 Build 0)  -->
<!DOCTYPE svg PUBLIC "-//W3C//DTD SVG 1.1//EN" "http://www.w3.org/Graphics/SVG/1.1/DTD/svg11.dtd">
<svg version="1.1" id="Layer_1" xmlns="http://www.w3.org/2000/svg" xmlns:xlink="http://www.w3.org/1999/xlink" x="0px" y="0px"
	 width="8.689px" height="9.991px" viewBox="0 0 8.689 9.991" enable-background="new 0 0 8.689 9.991" xml:space="preserve">
<g>
	<path d="M0,0h4.674c1.721-0.027,3.611,0.42,3.611,2.506c0,0.895-0.531,1.623-1.316,2.014c1.064,0.308,1.721,1.231,1.721,2.364
		c0,2.379-1.748,3.107-3.889,3.107H0V0z M2.604,3.932h2.014c0.449,0,1.064-0.238,1.064-0.951c0-0.727-0.518-0.966-1.064-0.966H2.604
		V3.932z M2.604,7.906h2.084c0.826,0,1.4-0.294,1.4-1.119c0-0.882-0.617-1.177-1.4-1.177H2.604V7.906z"/>
</g>
</svg>
