<?xml version="1.0" encoding="utf-8"?>
<!-- Generator: Adobe Illustrator 15.0.0, SVG Export Plug-In . SVG Version: 6.00 Build 0)  -->
<!DOCTYPE svg PUBLIC "-//W3C//DTD SVG 1.1//EN" "http://www.w3.org/Graphics/SVG/1.1/DTD/svg11.dtd">
<svg version="1.1" id="Layer_1" xmlns="http://www.w3.org/2000/svg" xmlns:xlink="http://www.w3.org/1999/xlink" x="0px" y="0px"
	 width="95.333px" height="62.702px" viewBox="3.667 18.38 95.333 62.702" enable-background="new 3.667 18.38 95.333 62.702"
	 xml:space="preserve">
<g id="XMLID_1_">
	<g>
		<g id="XMLID_2_">
			<g>
				<path d="M80.379,52.938l4.9-6.175l4.373,5.544L99,64.119h-9.348v6.766c0,5.617-4.579,10.197-10.195,10.197H13.863
					c-5.616,0-10.196-4.58-10.196-10.197V28.577c0-5.617,4.58-10.197,10.196-10.197h65.594c5.616,0,10.195,4.58,10.195,10.197v5.502
					h-9.273v-5.502c0-0.508-0.404-0.933-0.922-0.933H13.863c-0.498,0-0.933,0.425-0.933,0.933v42.309
					c0,0.52,0.435,0.923,0.933,0.923h65.594c0.518,0,0.922-0.403,0.922-0.923V64.12H71.54L80.379,52.938z"/>
			</g>
		</g>
	</g>
</g>
<polygon points="57.156,46.979 70.755,66.537 43.566,66.537 43.623,66.468 14.747,66.468 37.774,35.319 51.951,54.482 "/>
<path d="M64.973,34.795c2.797,0,5.055,2.268,5.055,5.055c0,2.789-2.258,5.056-5.055,5.056c-2.799,0-5.056-2.267-5.056-5.056
	C59.917,37.063,62.174,34.795,64.973,34.795z"/>
</svg>
