<?xml version="1.0" encoding="utf-8"?>
<!-- Generator: Adobe Illustrator 16.0.0, SVG Export Plug-In . SVG Version: 6.00 Build 0)  -->
<!DOCTYPE svg PUBLIC "-//W3C//DTD SVG 1.1//EN" "http://www.w3.org/Graphics/SVG/1.1/DTD/svg11.dtd">
<svg version="1.1" id="Layer_1" xmlns="http://www.w3.org/2000/svg" xmlns:xlink="http://www.w3.org/1999/xlink" x="0px" y="0px"
	 width="12px" height="12.001px" viewBox="0 0 12 12.001" enable-background="new 0 0 12 12.001" xml:space="preserve">
<g>
	<path d="M11.23,0.771C10.734,0.273,10.074,0,9.371,0C8.669,0,8.009,0.273,7.513,0.771L5.089,3.193c-0.256,0.258-0.256,0.674,0,0.93
		c0.258,0.256,0.674,0.256,0.93,0l2.424-2.424c0.248-0.248,0.578-0.385,0.928-0.385c0.352,0,0.682,0.137,0.93,0.385
		s0.385,0.578,0.385,0.93c0,0.35-0.137,0.68-0.385,0.928L7.876,5.98c-0.256,0.257-0.256,0.673,0,0.929
		c0.129,0.129,0.297,0.193,0.465,0.193s0.336-0.064,0.465-0.193l2.424-2.423C11.726,3.99,12,3.33,12,2.629
		C12,1.926,11.726,1.266,11.23,0.771z"/>
	<path d="M5.978,7.879l-2.424,2.423c-0.248,0.248-0.578,0.385-0.93,0.385c-0.35,0-0.68-0.137-0.928-0.385
		c-0.512-0.512-0.512-1.346,0-1.857l2.424-2.424c0.256-0.256,0.256-0.673,0-0.929s-0.672-0.256-0.93,0L0.767,7.515
		c-1.023,1.025-1.023,2.691,0.002,3.716c0.494,0.497,1.154,0.771,1.855,0.771c0.703,0,1.363-0.273,1.859-0.771l2.424-2.423
		c0.256-0.256,0.256-0.672,0-0.929C6.65,7.622,6.234,7.622,5.978,7.879z"/>
	<path d="M3.697,8.304C3.824,8.431,3.994,8.495,4.16,8.495c0.17,0,0.338-0.064,0.467-0.191L8.3,4.627
		c0.258-0.256,0.258-0.671,0-0.93c-0.256-0.256-0.672-0.256-0.928,0L3.697,7.374C3.439,7.631,3.439,8.046,3.697,8.304z"/>
</g>
</svg>
