<?xml version="1.0" encoding="utf-8"?>
<!-- Generator: Adobe Illustrator 16.0.0, SVG Export Plug-In . SVG Version: 6.00 Build 0)  -->
<!DOCTYPE svg PUBLIC "-//W3C//DTD SVG 1.1//EN" "http://www.w3.org/Graphics/SVG/1.1/DTD/svg11.dtd">
<svg version="1.1" id="Layer_1" xmlns="http://www.w3.org/2000/svg" xmlns:xlink="http://www.w3.org/1999/xlink" x="0px" y="0px"
	 width="27.231px" height="11.807px" viewBox="0 0 27.231 11.807" enable-background="new 0 0 27.231 11.807" xml:space="preserve">
<g id="menu_1_">
	<path d="M7.169,12h12.903V0H7.169V12z M8.418,1.252H18.82v9.499H8.418V1.252z"/>
	<path d="M5.061,1.98c-0.244-0.244-0.641-0.244-0.885,0L0,6.156l4.176,4.175c0.123,0.123,0.283,0.185,0.442,0.185
		c0.16,0,0.32-0.063,0.443-0.185c0.243-0.242,0.243-0.64,0-0.883L1.77,6.156l3.292-3.292C5.305,2.619,5.305,2.224,5.061,1.98z"/>
	<path d="M22.172,1.896c-0.244,0.245-0.244,0.64,0,0.884l3.291,3.291l-3.291,3.292c-0.244,0.244-0.244,0.643,0,0.884
		c0.122,0.123,0.283,0.183,0.442,0.183s0.319-0.061,0.442-0.183l4.175-4.175l-4.175-4.175C22.812,1.65,22.416,1.65,22.172,1.896z"/>
	<g>
		<g>
			<path d="M10.164,9.579V2.421h2.162l1.299,4.883l1.285-4.883h2.168v7.158h-1.344V3.944l-1.42,5.635h-1.393l-1.416-5.635v5.635
				H10.164z"/>
		</g>
	</g>
</g>
</svg>
