<?xml version="1.0" encoding="utf-8"?>
<!-- Generator: Adobe Illustrator 15.0.0, SVG Export Plug-In . SVG Version: 6.00 Build 0)  -->
<!DOCTYPE svg PUBLIC "-//W3C//DTD SVG 1.1//EN" "http://www.w3.org/Graphics/SVG/1.1/DTD/svg11.dtd">
<svg version="1.1" id="Your_Icon" xmlns="http://www.w3.org/2000/svg" xmlns:xlink="http://www.w3.org/1999/xlink" x="0px" y="0px"
	 width="94.846px" height="69.109px" viewBox="3.314 17.6 94.846 69.109" enable-background="new 3.314 17.6 94.846 69.109"
	 xml:space="preserve">
<g>
	<path d="M26.156,17.608c10.595-0.015,21.19-0.002,31.786-0.007c5.052,0.004,10.103-0.008,15.151,0.007
		c0.011,6.716,0.011,13.433,0,20.149c-0.979,0.054-1.954,0.19-2.924,0.351c-0.007-5.857,0-11.716-0.003-17.573
		c-13.693-0.002-27.389-0.002-41.083,0c-0.001,7.069,0,14.138-0.001,21.207c0.008,1.738-0.016,3.477,0.012,5.216
		c4.459-0.018,8.919-0.004,13.378-0.008c4.192,0.008,8.385-0.016,12.576,0.01c-0.723,0.938-1.446,1.877-2.055,2.895
		c-8.937,0.018-17.876-0.008-26.813,0.014c-0.043-0.268-0.022-0.539-0.025-0.807c0-6.211,0-12.421,0-18.63
		C26.16,26.156,26.138,21.882,26.156,17.608z"/>
	<path d="M39.082,23.79c1.153-0.081,2.333,0.323,3.196,1.094c0.934,0.819,1.502,2.056,1.476,3.302
		c0.031,1.326-0.619,2.636-1.659,3.452c-0.932,0.743-2.181,1.088-3.36,0.901c-0.966-0.13-1.885-0.598-2.551-1.31
		c-1.056-1.071-1.476-2.713-1.082-4.162C35.542,25.269,37.232,23.876,39.082,23.79z"/>
	<path d="M55.105,29.596c0.131-0.189,0.24-0.396,0.396-0.566c1.684,2.835,3.393,5.656,5.084,8.486
		c0.646,1.102,1.34,2.179,1.956,3.298c-1.45,0.785-2.819,1.719-4.089,2.77c-0.112,0.119-0.281,0.103-0.43,0.105
		c-7.667-0.01-15.335,0.01-23.004-0.011c0.064-0.167,0.223-0.269,0.34-0.396c2.745-2.745,5.491-5.486,8.232-8.233
		c0.071-0.062,0.157-0.194,0.265-0.109c1.92,0.958,3.839,1.92,5.759,2.878C51.458,35.084,53.273,32.335,55.105,29.596z"/>
	<g>
		<path d="M3.314,32.83c0.187-0.042,0.378-0.028,0.567-0.028c6.709,0.005,13.418-0.005,20.127,0.005l0.047,0.056
			c0.012,0.959-0.009,1.92,0.011,2.88c-3.961,0.028-7.923,0.001-11.885,0.013c-0.008,5.854-0.01,11.708,0.001,17.562
			c8.715,0.01,17.43,0.01,26.145,0c0.016-0.494-0.001-0.99,0.009-1.484c2.95,0.008,5.901,0.008,8.852,0
			c0.002,8.324,0.007,16.648-0.002,24.973c-8.835-0.018-17.67-0.002-26.505-0.008c-5.785,0.006-11.571-0.01-17.356,0.008
			C3.311,62.146,3.332,47.487,3.314,32.83z M5.826,35.796c-0.661,0.173-1.153,0.845-1.084,1.53c0.058,0.731,0.727,1.347,1.462,1.335
			c1,0.001,2.001,0.011,3.002-0.005c0.76-0.027,1.41-0.73,1.373-1.489c-0.002-0.731-0.634-1.391-1.366-1.412
			c-0.946-0.007-1.89,0.001-2.836-0.004C6.193,35.754,6.004,35.742,5.826,35.796z M5.666,41.713
			c-0.596,0.232-1.004,0.882-0.919,1.522c0.073,0.688,0.688,1.265,1.382,1.288c0.914,0.012,1.829-0.001,2.744,0.006
			c0.321,0.006,0.658-0.018,0.942-0.18c0.534-0.286,0.858-0.922,0.745-1.522c-0.099-0.652-0.694-1.188-1.354-1.207
			c-0.971-0.005-1.94,0.002-2.91-0.003C6.083,41.614,5.865,41.629,5.666,41.713z M5.826,47.524
			c-0.557,0.146-1.003,0.648-1.076,1.221c-0.093,0.619,0.281,1.26,0.847,1.514c0.295,0.141,0.628,0.139,0.947,0.133
			c0.89-0.006,1.78,0.008,2.67-0.006c0.755-0.035,1.404-0.732,1.366-1.492c-0.005-0.729-0.636-1.387-1.368-1.41
			c-0.945-0.008-1.889,0.002-2.835-0.004C6.193,47.479,6.005,47.474,5.826,47.524z M5.818,53.395
			c-0.744,0.182-1.247,1.021-1.033,1.762c0.154,0.637,0.773,1.109,1.427,1.098c0.997-0.002,1.994,0.008,2.991-0.004
			c0.745-0.025,1.393-0.703,1.376-1.449c0.019-0.746-0.627-1.436-1.375-1.453c-0.915-0.008-1.83,0.002-2.745-0.002
			C6.246,53.343,6.027,53.333,5.818,53.395z M40.999,53.395c-0.817,0.198-1.309,1.178-0.968,1.95
			c0.216,0.539,0.779,0.914,1.361,0.908c0.969,0.002,1.939,0.002,2.908,0c0.772,0.019,1.486-0.672,1.459-1.451
			c0.033-0.75-0.628-1.438-1.375-1.454c-0.915-0.007-1.83,0.002-2.745-0.003C41.425,53.345,41.207,53.333,40.999,53.395z
			 M12.184,56.282c-0.011,5.854-0.009,11.707-0.001,17.561c8.715,0.002,17.431,0.002,26.146,0c0.008-5.854,0.01-11.707-0.001-17.561
			C29.613,56.271,20.898,56.271,12.184,56.282z M5.826,59.253c-0.583,0.152-1.04,0.69-1.084,1.293
			c-0.082,0.785,0.589,1.543,1.377,1.568c1.003,0.01,2.006,0.002,3.008,0.004c0.757,0.008,1.446-0.652,1.452-1.414
			c0.04-0.759-0.607-1.47-1.367-1.494c-0.917-0.008-1.834,0.002-2.752-0.004C6.249,59.206,6.033,59.195,5.826,59.253z
			 M41.007,59.255c-0.696,0.172-1.187,0.912-1.065,1.619c0.09,0.694,0.743,1.254,1.442,1.244c0.975,0,1.949,0,2.923,0
			c0.754,0.01,1.458-0.65,1.451-1.414c0.052-0.761-0.606-1.476-1.365-1.494c-0.917-0.008-1.835,0.002-2.752-0.004
			C41.429,59.206,41.212,59.195,41.007,59.255z M5.819,65.12c-0.699,0.178-1.195,0.926-1.061,1.639c0.102,0.66,0.7,1.201,1.371,1.22
			c0.997,0.008,1.994,0,2.991,0.004c0.775,0.016,1.479-0.678,1.46-1.455c0.02-0.748-0.629-1.433-1.376-1.453
			c-0.886-0.008-1.774,0.002-2.66-0.002C6.301,65.07,6.055,65.057,5.819,65.12z M40.999,65.122c-0.678,0.17-1.159,0.877-1.065,1.569
			c0.068,0.687,0.684,1.265,1.374,1.285c0.998,0.008,1.996,0,2.993,0.004c0.772,0.013,1.494-0.672,1.458-1.455
			c0.033-0.75-0.628-1.436-1.375-1.452c-0.915-0.009-1.829,0.002-2.744-0.003C41.425,65.068,41.207,65.062,40.999,65.122z
			 M5.826,70.98c-0.583,0.15-1.04,0.689-1.084,1.291c-0.081,0.785,0.587,1.549,1.377,1.568c1.003,0.01,2.006,0.002,3.008,0.004
			c0.757,0.012,1.446-0.654,1.452-1.414c0.04-0.758-0.61-1.465-1.367-1.494c-0.917-0.008-1.834,0.002-2.752-0.004
			C6.249,70.934,6.033,70.925,5.826,70.98z M41.007,70.98c-0.649,0.162-1.129,0.82-1.08,1.488c0.026,0.715,0.653,1.348,1.371,1.371
			c1.002,0.01,2.005,0.002,3.008,0.004c0.756,0.012,1.458-0.648,1.452-1.412c0.052-0.762-0.609-1.471-1.366-1.496
			c-0.917-0.008-1.835,0.002-2.752-0.004C41.429,70.934,41.212,70.925,41.007,70.98z"/>
	</g>
	<g>
		<path d="M73.598,40.01c4.928-0.264,9.932,1.07,14.055,3.787c2.73,1.778,5.08,4.136,6.859,6.864
			c1.979,3.028,3.241,6.522,3.648,10.118c0.451,3.938-0.09,7.994-1.61,11.658c-1.276,3.125-3.254,5.957-5.722,8.261
			c-2.402,2.233-5.273,3.969-8.379,5.028c-3.619,1.246-7.545,1.584-11.325,0.982c-3.449-0.535-6.771-1.865-9.642-3.846
			c-3.762-2.582-6.744-6.283-8.459-10.512c-1.33-3.252-1.901-6.812-1.683-10.314c0.201-3.395,1.155-6.742,2.777-9.73
			c1.499-2.771,3.562-5.236,6.024-7.199C63.947,42.054,68.727,40.244,73.598,40.01z M84.882,48.835
			c-6.18,0.719-12.36,1.42-18.538,2.146c-0.01,5.989,0.004,11.981-0.006,17.973c-1.682-0.623-3.628-0.582-5.236,0.234
			c-0.963,0.487-1.805,1.295-2.168,2.328c-0.365,0.995-0.209,2.155,0.381,3.032c0.545,0.849,1.408,1.453,2.34,1.812
			c1.072,0.418,2.254,0.496,3.386,0.332c1.366-0.217,2.707-0.898,3.517-2.045c0.485-0.688,0.698-1.545,0.647-2.379
			c-0.011-5.183,0.006-10.363-0.007-15.545c1.429-0.207,2.867-0.337,4.301-0.515c3.576-0.412,7.15-0.826,10.725-1.235
			c0,3.922,0,7.842,0,11.764c-1.213-0.414-2.535-0.555-3.795-0.266c-1.275,0.278-2.52,0.969-3.24,2.086
			c-0.528,0.795-0.703,1.813-0.461,2.739c0.232,0.879,0.811,1.647,1.547,2.175c1.109,0.809,2.514,1.157,3.875,1.094
			c1.473-0.062,2.974-0.619,3.977-1.729c0.691-0.754,1.041-1.797,0.961-2.813c-0.005-4.963-0.001-9.926-0.003-14.89
			c0.042-2.176-0.002-4.352-0.002-6.527C86.346,48.644,85.613,48.761,84.882,48.835z"/>
	</g>
</g>
</svg>
