<?xml version="1.0" encoding="utf-8"?>
<!-- Generator: Adobe Illustrator 16.0.0, SVG Export Plug-In . SVG Version: 6.00 Build 0)  -->
<!DOCTYPE svg PUBLIC "-//W3C//DTD SVG 1.1//EN" "http://www.w3.org/Graphics/SVG/1.1/DTD/svg11.dtd">
<svg version="1.1" id="Layer_1" xmlns="http://www.w3.org/2000/svg" xmlns:xlink="http://www.w3.org/1999/xlink" x="0px" y="0px"
	 width="10.901px" height="10.76px" viewBox="0 0 10.901 10.76" enable-background="new 0 0 10.901 10.76" xml:space="preserve">
<g>
	<g>
		<path d="M0.253,0.932V0.499C0.593,0.506,0.942,0.381,0.966,0h0.488v2.414H0.831V0.932H0.253z"/>
	</g>
	<g>
		<path d="M0,6.571c0.003-0.308,0.139-0.599,0.378-0.804c0.207-0.18,0.443-0.305,0.63-0.422c0.184-0.121,0.315-0.24,0.315-0.402
			c0-0.188-0.125-0.301-0.312-0.301c-0.311,0-0.397,0.225-0.401,0.488H0.06c-0.035-0.6,0.346-1.005,0.948-1.005
			c0.478,0,0.904,0.249,0.904,0.766c0,0.464-0.333,0.638-0.687,0.855C1.042,5.861,0.946,5.92,0.79,6.072h1.146v0.499H0z"/>
	</g>
	<g>
		<path d="M0.779,9.253C0.831,9.25,0.884,9.26,0.935,9.256c0.174,0,0.393-0.045,0.393-0.252c0-0.156-0.156-0.242-0.347-0.242
			c-0.239,0-0.378,0.124-0.374,0.342H0.056c0.014-0.54,0.404-0.82,0.921-0.82c0.419,0,0.901,0.177,0.901,0.668
			c0,0.212-0.115,0.434-0.336,0.472V9.43c0.276,0.072,0.412,0.27,0.412,0.555c0,0.547-0.5,0.775-0.978,0.775
			c-0.564,0-1.021-0.287-0.987-0.908H0.54c-0.007,0.288,0.135,0.43,0.434,0.43c0.201,0,0.391-0.086,0.391-0.297
			c0-0.268-0.193-0.33-0.43-0.33c-0.051,0-0.104,0.004-0.155,0.008V9.253z"/>
	</g>
	<rect x="4.28" y="0.617" width="6.621" height="1.287"/>
	<rect x="4.28" y="4.688" width="6.621" height="1.288"/>
	<rect x="4.28" y="8.761" width="6.621" height="1.289"/>
</g>
</svg>
