<?xml version="1.0" encoding="utf-8"?>
<!-- Generator: Adobe Illustrator 16.0.0, SVG Export Plug-In . SVG Version: 6.00 Build 0)  -->
<!DOCTYPE svg PUBLIC "-//W3C//DTD SVG 1.1//EN" "http://www.w3.org/Graphics/SVG/1.1/DTD/svg11.dtd">
<svg version="1.1" id="Layer_1" xmlns="http://www.w3.org/2000/svg" xmlns:xlink="http://www.w3.org/1999/xlink" x="0px" y="0px"
	 width="14.166px" height="12px" viewBox="0 0 14.166 12" enable-background="new 0 0 14.166 12" xml:space="preserve">
<g id="Your_Icon_2_">
	<path d="M13.874,4.573l-4.607-4.59C9.1-0.026,8.958,0.097,8.948,0.265L8.805,2.28C7.542,2.077,4.7,1.976,2.221,4.454
		c-2.961,2.96-2.107,7.173-2.107,7.173l0.039,0.355c0,0,0.465-3.391,3.467-4.84c1.965-0.949,3.732-0.655,4.861-0.25L8.342,8.848
		c-0.01,0.166,0.113,0.311,0.279,0.324l5.236-3.899c0.156-0.102,0.297-0.156,0.307-0.322C14.178,4.784,14.014,4.705,13.874,4.573z"
		/>
</g>
</svg>
