<?xml version="1.0" encoding="utf-8"?>
<!-- Generator: Adobe Illustrator 15.0.0, SVG Export Plug-In . SVG Version: 6.00 Build 0)  -->
<!DOCTYPE svg PUBLIC "-//W3C//DTD SVG 1.1//EN" "http://www.w3.org/Graphics/SVG/1.1/DTD/svg11.dtd">
<svg version="1.1" id="Layer_1" xmlns="http://www.w3.org/2000/svg" xmlns:xlink="http://www.w3.org/1999/xlink" x="0px" y="0px"
	 width="76px" height="67px" viewBox="12 15 76 67" enable-background="new 12 15 76 67" xml:space="preserve">
<g id="Captions">
</g>
<g id="Your_Icon">
</g>
<g id="Layer_4">
	<g>
		<path d="M85.916,15H44.543C43.12,15,42,15.883,42,17.238V23h4v-5l0,0l0,0h39v0.462V48h-2v4h2.916C87.34,52,88,50.529,88,49.172
			V17.238C88,15.883,87.34,15,85.916,15z"/>
		<path d="M79.984,23H46h-4h-7.993C32.421,23,31,24.028,31,25.528V31h4v-4h7h4h33v21v4v8h-2v4h2.984C81.57,64,83,62.527,83,61.021
			V52v-4V25.528C83,24.028,81.57,23,79.984,23z"/>
		<rect x="72" y="60" width="5" height="4"/>
		<path d="M77,60V34.501C77,32.618,75.618,31,73.632,31H35h-4H16.094C14.113,31,12,32.618,12,34.501v44.415
			C12,80.799,14.113,82,16.094,82h57.538C75.618,82,77,80.799,77,78.916V64h-5v13H18V36h13h4h37v24H77z"/>
		<polygon points="54.809,53.852 43.063,67.208 35,58.814 34.848,58.416 21.491,74 68.234,74 		"/>
		<circle cx="30" cy="48" r="5"/>
	</g>
</g>
<g id="Layer_3">
</g>
</svg>
