<?xml version="1.0" encoding="utf-8"?>
<!-- Generator: Adobe Illustrator 16.0.0, SVG Export Plug-In . SVG Version: 6.00 Build 0)  -->
<!DOCTYPE svg PUBLIC "-//W3C//DTD SVG 1.1//EN" "http://www.w3.org/Graphics/SVG/1.1/DTD/svg11.dtd">
<svg version="1.1" id="Layer_1" xmlns="http://www.w3.org/2000/svg" xmlns:xlink="http://www.w3.org/1999/xlink" x="0px" y="0px"
	 width="9.885px" height="10.192px" viewBox="0 0 9.885 10.192" enable-background="new 0 0 9.885 10.192" xml:space="preserve">
<g>
	<g>
		<path d="M0,10.192V8.504h1.941C0.752,7.256,0.157,5.91,0.157,4.471c0-1.258,0.426-2.317,1.278-3.179S3.456,0,4.942,0
			c1.473,0,2.637,0.428,3.493,1.285s1.285,1.918,1.285,3.186c0,1.439-0.595,2.785-1.784,4.033h1.948v1.688H5.298V8.579
			c0.77-0.287,1.353-0.752,1.746-1.395c0.395-0.643,0.592-1.384,0.592-2.222c0-0.861-0.227-1.615-0.68-2.263
			C6.502,2.053,5.831,1.729,4.942,1.729c-0.885,0-1.555,0.321-2.01,0.964s-0.684,1.398-0.684,2.27c0,0.844,0.197,1.585,0.592,2.225
			c0.394,0.641,0.977,1.104,1.746,1.392v1.613H0z"/>
	</g>
</g>
</svg>
