<?xml version="1.0" encoding="utf-8"?>
<!-- Generator: Adobe Illustrator 16.0.0, SVG Export Plug-In . SVG Version: 6.00 Build 0)  -->
<!DOCTYPE svg PUBLIC "-//W3C//DTD SVG 1.1//EN" "http://www.w3.org/Graphics/SVG/1.1/DTD/svg11.dtd">
<svg version="1.1" id="Layer_1" xmlns="http://www.w3.org/2000/svg" xmlns:xlink="http://www.w3.org/1999/xlink" x="0px" y="0px"
	 width="14px" height="10.115px" viewBox="0 0 14 10.115" enable-background="new 0 0 14 10.115" xml:space="preserve">
<g>
	<path d="M9.525,4.716c0.002-0.009,0.004-0.018,0.008-0.026C9.471,4.658,9.412,4.624,9.346,4.599
		c-0.443-0.168-0.879-0.352-1.334-0.5c-0.615-0.199-1.25-0.359-1.867-0.555c-0.35-0.113-0.672-0.275-0.928-0.516
		C4.605,2.452,4.66,1.698,5.354,1.222C5.668,1.007,6.039,0.911,6.439,0.88c0.854-0.068,1.559,0.16,2.08,0.734
		c0.295,0.325,0.459,0.709,0.617,1.09c0.029,0.068,0.072,0.1,0.152,0.104c0.152,0.008,0.301,0.02,0.453,0.027
		c0.324,0.014,0.33,0.012,0.33-0.258c0-0.635-0.09-1.262-0.229-1.885c-0.021-0.098-0.08-0.137-0.186-0.166
		c-0.572-0.148-1.15-0.268-1.746-0.335C7.102,0.099,6.301,0.126,5.506,0.298C4.109,0.599,3.068,1.606,3.002,2.821
		C2.965,3.487,3.23,4.074,3.68,4.616C3.74,4.689,3.805,4.717,3.914,4.717c1.826-0.001,3.65-0.001,5.477-0.001
		C9.436,4.716,9.48,4.716,9.525,4.716z M7.803,6.385c0,0.006,0,0.012-0.002,0.016C8,6.479,8.197,6.555,8.395,6.633
		c0.252,0.1,0.465,0.238,0.646,0.417c0.686,0.664,0.42,1.478-0.312,1.932C7.939,9.469,7.033,9.555,6.096,9.32
		C5.264,9.114,4.691,8.662,4.385,7.982c-0.09-0.199-0.193-0.395-0.295-0.59C4.074,7.361,4.035,7.316,4.006,7.316
		c-0.25-0.006-0.5-0.003-0.754-0.003C3.25,7.373,3.246,7.406,3.246,7.439c0,0.61-0.002,1.221,0,1.83
		c0,0.258,0.014,0.285,0.316,0.367c0.367,0.1,0.744,0.18,1.113,0.278c1.004,0.265,2.025,0.271,3.053,0.142
		c0.811-0.102,1.504-0.428,2.145-0.84c0.445-0.287,0.746-0.652,0.914-1.1C10.945,7.699,11.016,7.271,11,6.834
		c-0.008-0.15-0.033-0.299-0.049-0.449C9.887,6.385,8.844,6.385,7.803,6.385z"/>
	<path fill-rule="evenodd" clip-rule="evenodd" d="M14,5.834c-0.082,0.105-0.197,0.137-0.348,0.137
		C9.219,5.967,4.785,5.969,0.352,5.969C0.068,5.969,0,5.91,0,5.67c0-0.106-0.002-0.215,0-0.32c0.004-0.135,0.094-0.211,0.254-0.221
		c0.037-0.002,0.074-0.002,0.109-0.002c4.426,0,8.85,0.002,13.273,0C13.791,5.125,13.914,5.152,14,5.262C14,5.453,14,5.643,14,5.834
		z"/>
	<path fill-rule="evenodd" clip-rule="evenodd" d="M9.525,4.716c-0.045,0-0.09,0-0.135,0c-1.826,0-3.65,0-5.477,0.001
		c-0.109,0-0.174-0.027-0.234-0.101C3.23,4.074,2.965,3.487,3.002,2.821c0.066-1.215,1.107-2.223,2.504-2.523
		c0.795-0.172,1.596-0.199,2.406-0.106c0.596,0.067,1.174,0.187,1.746,0.335c0.105,0.029,0.164,0.068,0.186,0.166
		c0.139,0.623,0.229,1.25,0.229,1.885c0,0.27-0.006,0.271-0.33,0.258C9.59,2.827,9.441,2.815,9.289,2.808
		c-0.08-0.004-0.123-0.035-0.152-0.104C8.979,2.323,8.814,1.939,8.52,1.614C7.998,1.04,7.293,0.812,6.439,0.88
		c-0.4,0.031-0.771,0.127-1.086,0.342C4.66,1.698,4.605,2.452,5.217,3.028c0.256,0.24,0.578,0.402,0.928,0.516
		c0.617,0.195,1.252,0.355,1.867,0.555c0.455,0.148,0.891,0.332,1.334,0.5c0.066,0.025,0.125,0.06,0.188,0.091
		C9.529,4.698,9.527,4.707,9.525,4.716z"/>
	<path fill-rule="evenodd" clip-rule="evenodd" d="M7.803,6.385c1.041,0,2.084,0,3.148,0c0.016,0.15,0.041,0.299,0.049,0.449
		c0.016,0.438-0.055,0.865-0.213,1.283c-0.168,0.447-0.469,0.812-0.914,1.1c-0.641,0.412-1.334,0.738-2.145,0.84
		C6.701,10.186,5.68,10.18,4.676,9.915C4.307,9.816,3.93,9.736,3.562,9.637C3.26,9.555,3.246,9.527,3.246,9.27
		c-0.002-0.609,0-1.22,0-1.83c0-0.033,0.004-0.066,0.006-0.126c0.254,0,0.504-0.003,0.754,0.003c0.029,0,0.068,0.045,0.084,0.076
		c0.102,0.195,0.205,0.391,0.295,0.59c0.307,0.68,0.879,1.132,1.711,1.338c0.938,0.234,1.844,0.148,2.633-0.339
		C9.461,8.527,9.727,7.714,9.041,7.05C8.859,6.871,8.646,6.732,8.395,6.633C8.197,6.555,8,6.479,7.801,6.4
		C7.803,6.396,7.803,6.391,7.803,6.385z"/>
</g>
</svg>
