<?xml version="1.0" encoding="utf-8"?>
<!-- Generator: Adobe Illustrator 16.0.0, SVG Export Plug-In . SVG Version: 6.00 Build 0)  -->
<!DOCTYPE svg PUBLIC "-//W3C//DTD SVG 1.1//EN" "http://www.w3.org/Graphics/SVG/1.1/DTD/svg11.dtd">
<svg version="1.1" id="Layer_1" xmlns="http://www.w3.org/2000/svg" xmlns:xlink="http://www.w3.org/1999/xlink" x="0px" y="0px"
	 width="14.166px" height="12.018px" viewBox="0 0 14.166 12.018" enable-background="new 0 0 14.166 12.018" xml:space="preserve">
<g id="Your_Icon_1_">
	<path d="M0.293,4.606l4.607-4.588c0.164-0.012,0.307,0.113,0.316,0.279L5.36,2.315c1.264-0.205,4.105-0.307,6.584,2.174
		c2.961,2.96,2.107,7.171,2.107,7.171l-0.039,0.357c0,0-0.465-3.391-3.467-4.84C8.581,6.229,6.813,6.522,5.684,6.926l0.139,1.955
		c0.012,0.168-0.113,0.312-0.279,0.324L0.307,5.306C0.151,5.204,0.01,5.151,0,4.983C-0.011,4.819,0.151,4.741,0.293,4.606z"/>
</g>
</svg>
