<?xml version="1.0" encoding="utf-8"?>
<!-- Generator: Adobe Illustrator 16.0.0, SVG Export Plug-In . SVG Version: 6.00 Build 0)  -->
<!DOCTYPE svg PUBLIC "-//W3C//DTD SVG 1.1//EN" "http://www.w3.org/Graphics/SVG/1.1/DTD/svg11.dtd">
<svg version="1.1" id="Layer_1" xmlns="http://www.w3.org/2000/svg" xmlns:xlink="http://www.w3.org/1999/xlink" x="0px" y="0px"
	 width="10.563px" height="9.55px" viewBox="0 0 10.563 9.55" enable-background="new 0 0 10.563 9.55" xml:space="preserve">
<g>
	<rect x="3.942" y="0.054" width="6.621" height="1.289"/>
	<rect x="3.942" y="4.126" width="6.621" height="1.288"/>
	<rect x="3.942" y="8.197" width="6.621" height="1.289"/>
	<g>
		<path d="M0.616,0c0.344,0,0.62,0.273,0.62,0.616c0,0.344-0.276,0.62-0.62,0.62C0.273,1.236,0,0.96,0,0.616
			C0,0.273,0.273,0,0.616,0z"/>
	</g>
	<g>
		<path d="M0.616,4.157c0.344,0,0.62,0.273,0.62,0.616s-0.276,0.62-0.62,0.62C0.273,5.394,0,5.116,0,4.773S0.273,4.157,0.616,4.157z
			"/>
	</g>
	<g>
		<path d="M0.616,8.313c0.344,0,0.62,0.273,0.62,0.617c0,0.343-0.276,0.619-0.62,0.619C0.273,9.55,0,9.273,0,8.931
			C0,8.587,0.273,8.313,0.616,8.313z"/>
	</g>
</g>
</svg>
