<?xml version="1.0" encoding="utf-8"?>
<!-- Generator: Adobe Illustrator 15.0.0, SVG Export Plug-In . SVG Version: 6.00 Build 0)  -->
<!DOCTYPE svg PUBLIC "-//W3C//DTD SVG 1.1//EN" "http://www.w3.org/Graphics/SVG/1.1/DTD/svg11.dtd">
<svg version="1.1" id="Layer_1" xmlns="http://www.w3.org/2000/svg" xmlns:xlink="http://www.w3.org/1999/xlink" x="0px" y="0px"
	 width="94.333px" height="62.044px" viewBox="3.998 17.846 94.333 62.044" enable-background="new 3.998 17.846 94.333 62.044"
	 xml:space="preserve">
<g id="XMLID_7_">
	<g>
		<g id="XMLID_8_">
			<g>
				<path d="M79.904,52.042l4.851-6.112l4.328,5.486l9.248,11.688h-9.248V69.8c0,5.56-4.532,10.091-10.089,10.091H14.087
					c-5.557,0-10.089-4.531-10.089-10.091V27.936c0-5.559,4.532-10.09,10.089-10.09h64.906c5.557,0,10.089,4.531,10.089,10.09v5.443
					h-9.178v-5.443c0-0.502-0.398-0.923-0.911-0.923H14.087c-0.492,0-0.923,0.421-0.923,0.923V69.8c0,0.513,0.431,0.913,0.923,0.913
					h64.906c0.513,0,0.911-0.4,0.911-0.913v-6.694h-8.746L79.904,52.042z"/>
			</g>
		</g>
	</g>
</g>
<g id="XMLID_9_">
	<g>
		<g id="XMLID_10_">
			<g>
				<path d="M58.135,48.205v12.457v1.544c0,1.362-0.973,2.474-2.136,2.474h-34.79c-1.195,0-2.136-1.109-2.136-2.474v-15.45
					c1.978,2.274,4.886,3.711,8.132,3.711c4.643,0,8.586-2.938,10.109-7.062c1.607,3.934,5.467,6.704,9.982,6.704
					c4.517,0,8.386-2.802,9.993-6.757c0.508,0.444,0.846,1.152,0.846,1.956V48.205z"/>
				<path d="M19.971,42.051c-0.106-0.339-0.201-0.677-0.243-1.036c-0.085-0.434-0.127-0.878-0.127-1.332
					c0-4.188,3.395-7.604,7.603-7.604c4.198,0,7.592,3.416,7.592,7.604c0,0.348-0.021,0.697-0.084,1.035
					c-0.021,0.36-0.106,0.72-0.201,1.058c-0.106,0.359-0.244,0.72-0.413,1.058c-1.174,2.634-3.817,4.463-6.895,4.463
					c-3.003,0-5.604-1.744-6.831-4.272C20.214,42.706,20.087,42.389,19.971,42.051z"/>
				<path d="M67.355,47.824v13.208c0,0.665-0.498,1.204-1.121,1.204l-5.985-1.162V47.793l5.985-1.174
					C66.857,46.619,67.355,47.157,67.355,47.824z"/>
				<path d="M54.889,39.333c0,0.476-0.043,0.931-0.127,1.385c-0.063,0.36-0.16,0.72-0.287,1.058c-0.115,0.37-0.264,0.72-0.443,1.058
					c-1.258,2.443-3.807,4.104-6.736,4.104c-2.929,0-5.488-1.66-6.746-4.104c-0.18-0.338-0.328-0.688-0.444-1.058
					c-0.127-0.338-0.232-0.697-0.286-1.058c-0.084-0.443-0.126-0.909-0.126-1.385c0-4.198,3.395-7.604,7.603-7.604
					C51.494,31.729,54.889,35.135,54.889,39.333z"/>
			</g>
		</g>
	</g>
</g>
</svg>
